<mxfile host="Electron" modified="2024-05-20T12:53:18.834Z" agent="Mozilla/5.0 (Windows NT 10.0; Win64; x64) AppleWebKit/537.36 (KHTML, like Gecko) draw.io/24.1.0 Chrome/120.0.6099.109 Electron/28.1.0 Safari/537.36" etag="D7HdYaNnEqHF8nkWYSmD" version="24.1.0" type="device">
  <diagram name="Страница — 1" id="DyLCEdy1g0QT2z4JyIC8">
    <mxGraphModel dx="757" dy="571" grid="1" gridSize="10" guides="1" tooltips="1" connect="1" arrows="1" fold="1" page="1" pageScale="1" pageWidth="1169" pageHeight="827" math="0" shadow="0">
      <root>
        <mxCell id="0" />
        <mxCell id="1" parent="0" />
        <mxCell id="xMzs6vxOjyjRlmumSOxq-1" value="" style="sketch=0;points=[[0.5,0,0],[1,0.5,0],[0.5,1,0],[0,0.5,0],[0.145,0.145,0],[0.8555,0.145,0],[0.855,0.8555,0],[0.145,0.855,0]];verticalLabelPosition=bottom;html=1;verticalAlign=top;aspect=fixed;align=center;pointerEvents=1;shape=mxgraph.cisco19.rect;prIcon=router;fillColor=#FAFAFA;strokeColor=#005073;" vertex="1" parent="1">
          <mxGeometry x="300" y="510" width="50" height="50" as="geometry" />
        </mxCell>
        <mxCell id="xMzs6vxOjyjRlmumSOxq-2" value="" style="sketch=0;points=[[0.5,0,0],[1,0.5,0],[0.5,1,0],[0,0.5,0],[0.145,0.145,0],[0.8555,0.145,0],[0.855,0.8555,0],[0.145,0.855,0]];verticalLabelPosition=bottom;html=1;verticalAlign=top;aspect=fixed;align=center;pointerEvents=1;shape=mxgraph.cisco19.rect;prIcon=router;fillColor=#FAFAFA;strokeColor=#005073;" vertex="1" parent="1">
          <mxGeometry x="490" y="510" width="50" height="50" as="geometry" />
        </mxCell>
        <mxCell id="xMzs6vxOjyjRlmumSOxq-3" value="" style="sketch=0;points=[[0.5,0,0],[1,0.5,0],[0.5,1,0],[0,0.5,0],[0.145,0.145,0],[0.8555,0.145,0],[0.855,0.8555,0],[0.145,0.855,0]];verticalLabelPosition=bottom;html=1;verticalAlign=top;aspect=fixed;align=center;pointerEvents=1;shape=mxgraph.cisco19.rect;prIcon=router;fillColor=#FAFAFA;strokeColor=#005073;" vertex="1" parent="1">
          <mxGeometry x="395" y="390" width="50" height="50" as="geometry" />
        </mxCell>
        <mxCell id="xMzs6vxOjyjRlmumSOxq-4" value="" style="endArrow=none;html=1;rounded=0;entryX=0.145;entryY=0.855;entryDx=0;entryDy=0;entryPerimeter=0;exitX=0.8555;exitY=0.145;exitDx=0;exitDy=0;exitPerimeter=0;" edge="1" parent="1" source="xMzs6vxOjyjRlmumSOxq-1" target="xMzs6vxOjyjRlmumSOxq-3">
          <mxGeometry width="50" height="50" relative="1" as="geometry">
            <mxPoint x="390" y="590" as="sourcePoint" />
            <mxPoint x="440" y="540" as="targetPoint" />
          </mxGeometry>
        </mxCell>
        <mxCell id="xMzs6vxOjyjRlmumSOxq-5" value="" style="endArrow=none;html=1;rounded=0;exitX=0.1;exitY=0.2;exitDx=0;exitDy=0;exitPerimeter=0;entryX=0.855;entryY=0.8555;entryDx=0;entryDy=0;entryPerimeter=0;" edge="1" parent="1" source="xMzs6vxOjyjRlmumSOxq-2" target="xMzs6vxOjyjRlmumSOxq-3">
          <mxGeometry width="50" height="50" relative="1" as="geometry">
            <mxPoint x="390" y="590" as="sourcePoint" />
            <mxPoint x="440" y="540" as="targetPoint" />
          </mxGeometry>
        </mxCell>
        <mxCell id="xMzs6vxOjyjRlmumSOxq-6" value="" style="points=[[0.03,0.03,0],[0.5,0,0],[0.97,0.03,0],[1,0.4,0],[0.97,0.745,0],[0.5,1,0],[0.03,0.745,0],[0,0.4,0]];verticalLabelPosition=bottom;sketch=0;html=1;verticalAlign=top;aspect=fixed;align=center;pointerEvents=1;shape=mxgraph.cisco19.workstation;fillColor=#005073;strokeColor=none;" vertex="1" parent="1">
          <mxGeometry x="395" y="270" width="50" height="40" as="geometry" />
        </mxCell>
        <mxCell id="xMzs6vxOjyjRlmumSOxq-7" value="" style="sketch=0;points=[[0.015,0.015,0],[0.985,0.015,0],[0.985,0.985,0],[0.015,0.985,0],[0.25,0,0],[0.5,0,0],[0.75,0,0],[1,0.25,0],[1,0.5,0],[1,0.75,0],[0.75,1,0],[0.5,1,0],[0.25,1,0],[0,0.75,0],[0,0.5,0],[0,0.25,0]];verticalLabelPosition=bottom;html=1;verticalAlign=top;aspect=fixed;align=center;pointerEvents=1;shape=mxgraph.cisco19.server;fillColor=#005073;strokeColor=none;" vertex="1" parent="1">
          <mxGeometry x="311.25" y="670" width="27.500000000000004" height="50" as="geometry" />
        </mxCell>
        <mxCell id="xMzs6vxOjyjRlmumSOxq-8" value="" style="sketch=0;points=[[0.015,0.015,0],[0.985,0.015,0],[0.985,0.985,0],[0.015,0.985,0],[0.25,0,0],[0.5,0,0],[0.75,0,0],[1,0.25,0],[1,0.5,0],[1,0.75,0],[0.75,1,0],[0.5,1,0],[0.25,1,0],[0,0.75,0],[0,0.5,0],[0,0.25,0]];verticalLabelPosition=bottom;html=1;verticalAlign=top;aspect=fixed;align=center;pointerEvents=1;shape=mxgraph.cisco19.server;fillColor=#005073;strokeColor=none;" vertex="1" parent="1">
          <mxGeometry x="501.25" y="670" width="27.500000000000004" height="50" as="geometry" />
        </mxCell>
        <mxCell id="xMzs6vxOjyjRlmumSOxq-9" value="" style="endArrow=none;html=1;rounded=0;entryX=0.5;entryY=1;entryDx=0;entryDy=0;entryPerimeter=0;exitX=0.5;exitY=0;exitDx=0;exitDy=0;exitPerimeter=0;" edge="1" parent="1" source="xMzs6vxOjyjRlmumSOxq-3" target="xMzs6vxOjyjRlmumSOxq-6">
          <mxGeometry width="50" height="50" relative="1" as="geometry">
            <mxPoint x="420" y="350" as="sourcePoint" />
            <mxPoint x="440" y="410" as="targetPoint" />
          </mxGeometry>
        </mxCell>
        <mxCell id="xMzs6vxOjyjRlmumSOxq-10" value="" style="endArrow=none;html=1;rounded=0;entryX=0.5;entryY=1;entryDx=0;entryDy=0;entryPerimeter=0;exitX=0.5;exitY=0;exitDx=0;exitDy=0;exitPerimeter=0;" edge="1" parent="1" source="xMzs6vxOjyjRlmumSOxq-8" target="xMzs6vxOjyjRlmumSOxq-2">
          <mxGeometry width="50" height="50" relative="1" as="geometry">
            <mxPoint x="365" y="460" as="sourcePoint" />
            <mxPoint x="415" y="410" as="targetPoint" />
          </mxGeometry>
        </mxCell>
        <mxCell id="xMzs6vxOjyjRlmumSOxq-11" value="" style="endArrow=none;html=1;rounded=0;exitX=0.5;exitY=1;exitDx=0;exitDy=0;exitPerimeter=0;entryX=0.5;entryY=0;entryDx=0;entryDy=0;entryPerimeter=0;" edge="1" parent="1" source="xMzs6vxOjyjRlmumSOxq-1" target="xMzs6vxOjyjRlmumSOxq-7">
          <mxGeometry width="50" height="50" relative="1" as="geometry">
            <mxPoint x="415" y="460" as="sourcePoint" />
            <mxPoint x="465" y="410" as="targetPoint" />
          </mxGeometry>
        </mxCell>
        <mxCell id="xMzs6vxOjyjRlmumSOxq-12" value="HQ-NET&lt;br&gt;ipv4 192.168.10.0/26&lt;div&gt;ipv6 192:168:10:0/122&lt;/div&gt;" style="text;html=1;strokeColor=none;fillColor=none;align=center;verticalAlign=middle;whiteSpace=wrap;rounded=0;" vertex="1" parent="1">
          <mxGeometry x="194" y="585" width="130" height="30" as="geometry" />
        </mxCell>
        <mxCell id="xMzs6vxOjyjRlmumSOxq-13" value="BR-NET&lt;br&gt;ipv4 192.168.20.0/26&lt;div&gt;ipv6 192:168:20:0/126&lt;/div&gt;" style="text;html=1;strokeColor=none;fillColor=none;align=center;verticalAlign=middle;whiteSpace=wrap;rounded=0;" vertex="1" parent="1">
          <mxGeometry x="521" y="585" width="123" height="30" as="geometry" />
        </mxCell>
        <mxCell id="xMzs6vxOjyjRlmumSOxq-14" value="ISP-NET-1&lt;br&gt;ipv4 100.64.10.0/24&lt;div&gt;ipv6 100:64:10:0/64&lt;/div&gt;" style="text;html=1;strokeColor=none;fillColor=none;align=center;verticalAlign=middle;whiteSpace=wrap;rounded=0;" vertex="1" parent="1">
          <mxGeometry x="240" y="450" width="115" height="30" as="geometry" />
        </mxCell>
        <mxCell id="xMzs6vxOjyjRlmumSOxq-15" value="ISP-NET-2&lt;br&gt;ipv4 100.64.20.0/24&lt;div&gt;ipv6 100:64:20:0/64&lt;br&gt;&lt;/div&gt;" style="text;html=1;strokeColor=none;fillColor=none;align=center;verticalAlign=middle;whiteSpace=wrap;rounded=0;" vertex="1" parent="1">
          <mxGeometry x="479" y="450" width="122.5" height="30" as="geometry" />
        </mxCell>
        <mxCell id="xMzs6vxOjyjRlmumSOxq-17" value="CLI" style="text;html=1;strokeColor=none;fillColor=none;align=center;verticalAlign=middle;whiteSpace=wrap;rounded=0;" vertex="1" parent="1">
          <mxGeometry x="430" y="275" width="60" height="30" as="geometry" />
        </mxCell>
        <mxCell id="xMzs6vxOjyjRlmumSOxq-18" value="" style="endArrow=none;dashed=1;html=1;dashPattern=1 3;strokeWidth=2;rounded=0;exitX=1;exitY=0.5;exitDx=0;exitDy=0;exitPerimeter=0;entryX=0;entryY=0.5;entryDx=0;entryDy=0;entryPerimeter=0;edgeStyle=orthogonalEdgeStyle;curved=1;" edge="1" parent="1" source="xMzs6vxOjyjRlmumSOxq-1" target="xMzs6vxOjyjRlmumSOxq-2">
          <mxGeometry width="50" height="50" relative="1" as="geometry">
            <mxPoint x="630" y="550" as="sourcePoint" />
            <mxPoint x="680" y="500" as="targetPoint" />
            <Array as="points">
              <mxPoint x="350" y="520" />
              <mxPoint x="490" y="520" />
            </Array>
          </mxGeometry>
        </mxCell>
        <mxCell id="xMzs6vxOjyjRlmumSOxq-19" value="WG 10.0.0.0/24" style="text;html=1;align=center;verticalAlign=middle;whiteSpace=wrap;rounded=0;" vertex="1" parent="1">
          <mxGeometry x="382.5" y="490" width="75" height="30" as="geometry" />
        </mxCell>
        <mxCell id="xMzs6vxOjyjRlmumSOxq-20" value="CLI net&lt;br&gt;ipv4 100.64.30.0/24&lt;div&gt;ipv6 100:64:30:0/64&lt;/div&gt;" style="text;html=1;strokeColor=none;fillColor=none;align=center;verticalAlign=middle;whiteSpace=wrap;rounded=0;" vertex="1" parent="1">
          <mxGeometry x="300" y="340" width="115" height="30" as="geometry" />
        </mxCell>
        <mxCell id="xMzs6vxOjyjRlmumSOxq-23" value="ISP" style="text;html=1;strokeColor=none;fillColor=none;align=center;verticalAlign=middle;whiteSpace=wrap;rounded=0;" vertex="1" parent="1">
          <mxGeometry x="430" y="398" width="60" height="30" as="geometry" />
        </mxCell>
        <mxCell id="xMzs6vxOjyjRlmumSOxq-24" value="HQ-R" style="text;html=1;strokeColor=none;fillColor=none;align=center;verticalAlign=middle;whiteSpace=wrap;rounded=0;" vertex="1" parent="1">
          <mxGeometry x="240" y="520" width="60" height="30" as="geometry" />
        </mxCell>
        <mxCell id="xMzs6vxOjyjRlmumSOxq-25" value="BR-R" style="text;html=1;strokeColor=none;fillColor=none;align=center;verticalAlign=middle;whiteSpace=wrap;rounded=0;" vertex="1" parent="1">
          <mxGeometry x="540" y="520" width="60" height="30" as="geometry" />
        </mxCell>
        <mxCell id="xMzs6vxOjyjRlmumSOxq-26" value="BR-SRV" style="text;html=1;strokeColor=none;fillColor=none;align=center;verticalAlign=middle;whiteSpace=wrap;rounded=0;" vertex="1" parent="1">
          <mxGeometry x="528.75" y="680" width="60" height="30" as="geometry" />
        </mxCell>
        <mxCell id="xMzs6vxOjyjRlmumSOxq-27" value="HQ-SRV" style="text;html=1;strokeColor=none;fillColor=none;align=center;verticalAlign=middle;whiteSpace=wrap;rounded=0;" vertex="1" parent="1">
          <mxGeometry x="251.25" y="680" width="60" height="30" as="geometry" />
        </mxCell>
      </root>
    </mxGraphModel>
  </diagram>
</mxfile>
